<svg xmlns="http://www.w3.org/2000/svg" viewBox="0 0 64 64" fill="none">
  <circle cx="32" cy="32" r="30" fill="#5C3A1E"/>
  <path d="M18 28c0-8 6-14 14-14s14 6 14 14v8c0 4-2 7-5 9H23c-3-2-5-5-5-9v-8z" fill="#C8962E"/>
  <path d="M46 30c3 0 6 2 6 6s-3 6-6 6" stroke="#C8962E" stroke-width="3" stroke-linecap="round"/>
  <path d="M22 24c2-3 5-5 10-5s8 2 10 5" stroke="#5C3A1E" stroke-width="2" stroke-linecap="round" opacity="0.5"/>
  <path d="M26 18c1-3 2-5 1-8M32 16c0-3 0-5-1-8M38 18c-1-3-2-5-1-8" stroke="#FDF6EC" stroke-width="2" stroke-linecap="round" opacity="0.6"/>
</svg>
